<?xml version="1.0" standalone="no"?>
<!DOCTYPE svg PUBLIC "-//W3C//DTD SVG 1.1//EN" "http://www.w3.org/Graphics/SVG/1.1/DTD/svg11.dtd" >
<svg xmlns="http://www.w3.org/2000/svg">
<metadata>
<json>
<![CDATA[
{
	"fontFamily": "icomoon",
	"fontURL": "https://wp-cocoon.com/",
	"license": "GNU GENERAL PUBLIC LICENSE（GPL）",
	"licenseURL": "https://wp-cocoon.com/terms-of-use/",
	"description": "Icon font organized for Cocoon. Created by IcoMoon.\nFont generated by IcoMoon.",
	"copyright": "yhira",
	"majorVersion": 1,
	"minorVersion": 5,
	"version": "Version 1.5",
	"fontId": "icomoon",
	"psName": "icomoon",
	"subFamily": "Regular",
	"fullName": "icomoon"
}
]]>
</json>
</metadata>
<defs>
<font id="icomoon" horiz-adv-x="1024">
<font-face units-per-em="1024" ascent="870.850439882698" descent="-153.14956011730206" />
<missing-glyph horiz-adv-x="1024" />
<glyph unicode="&#x20;" d="" />
<glyph unicode="&#xe900;" glyph-name="collapse_all_FILL" data-tags="collapse_all_FILL" d="M315.733-108.8l-93.867 93.867 290.133 290.133 290.133-290.133-93.867-93.867-196.267 196.267-196.267-196.267zM512 428.8l-290.133 290.133 93.867 93.867 196.267-196.267 196.267 196.267 93.867-93.867-290.133-290.133z" />
<glyph unicode="&#xe901;" glyph-name="download_FILL" data-tags="download_FILL" d="M134.531-117.892v134.531h755.938v-134.531h-755.938zM512.5 102.056l-377.969 471.928h200.729v234.896h354.479v-234.896h200.729l-377.969-471.928z" />
<glyph unicode="&#xf00c;" glyph-name="check" data-tags="check" d="M348.476-28.546l-333.451 333.451c-20.034 20.034-20.034 52.514 0 72.55l72.548 72.55c20.034 20.036 52.516 20.036 72.55 0l224.628-224.628 481.129 481.129c20.034 20.034 52.516 20.034 72.55 0l72.548-72.55c20.034-20.034 20.034-52.514 0-72.55l-589.952-589.954c-20.036-20.034-52.516-20.034-72.548 0.002z" />
<glyph unicode="&#xf013;" glyph-name="cog" data-tags="cog" d="M976.707 219.347c9.819-5.61 14.227-17.233 11.221-28.255-22.243-71.54-60.118-136.067-109.614-189.571-7.614-8.414-19.837-10.219-29.658-4.609l-85.365 49.297c-36.070-30.662-77.352-54.506-121.84-70.339v-98.592c0-11.221-7.815-21.042-18.835-23.444-69.937-15.632-145.284-16.432-218.827 0-11.022 2.402-18.837 12.223-18.837 23.444v98.592c-44.688 15.63-85.967 39.478-121.838 70.339l-85.365-49.297c-9.618-5.61-22.044-3.608-29.658 4.609-49.496 53.706-87.371 118.23-109.614 189.571-3.207 10.821 1.201 22.444 11.022 28.054l85.365 49.295c-8.616 46.49-8.616 94.184 0 140.674l-85.365 49.295c-9.821 5.612-14.428 17.235-11.022 28.054 22.243 71.54 60.118 136.067 109.614 189.571 7.614 8.416 19.837 10.219 29.658 4.609l85.166-49.295c36.070 30.66 77.35 54.504 121.838 70.337v98.592c0 11.221 7.817 21.042 18.837 23.446 69.935 15.63 145.284 16.43 218.825 0 11.022-2.404 18.837-12.225 18.837-23.446v-98.393c44.688-15.63 85.969-39.476 121.838-70.337l85.367 49.295c9.618 5.612 22.044 3.61 29.658-4.609 49.496-53.704 87.369-118.23 109.614-189.569 3.205-10.823-1.203-22.444-11.022-28.054l-85.367-49.297c8.616-46.488 8.616-94.184 0-140.672zM513.001 178.668c88.371 0 160.313 71.941 160.313 160.313s-71.941 160.313-160.313 160.313-160.313-71.941-160.313-160.313 71.941-160.313 160.313-160.313z" />
<glyph unicode="&#xf062;" glyph-name="arrow-up" data-tags="arrow-up" horiz-adv-x="898" d="M69.937 271.85l-44.486 44.486c-18.837 18.835-18.837 49.295 0 67.931l389.36 389.56c18.837 18.837 49.295 18.837 67.933 0l389.36-389.36c18.835-18.837 18.835-49.297 0-67.933l-44.486-44.486c-19.038-19.038-50.098-18.636-68.734 0.803l-229.848 241.271v-575.924c0-26.652-21.442-48.094-48.094-48.094h-64.126c-26.652 0-48.094 21.442-48.094 48.094v575.924l-230.049-241.472c-18.636-19.64-49.697-20.040-68.734-0.803z" />
<glyph unicode="&#xf063;" glyph-name="arrow-down" data-tags="arrow-down" horiz-adv-x="898" d="M827.816 406.112l44.486-44.486c18.837-18.835 18.837-49.295 0-67.931l-389.36-389.56c-18.837-18.837-49.295-18.837-67.933 0l-389.558 389.56c-18.837 18.835-18.837 49.295 0 67.931l44.486 44.486c19.038 19.038 50.098 18.636 68.734-0.803l230.049-241.472v575.924c0 26.652 21.442 48.094 48.094 48.094h64.126c26.652 0 48.094-21.442 48.094-48.094v-575.924l230.049 241.472c18.636 19.64 49.697 20.040 68.734 0.803z" />
<glyph unicode="&#xf067;" glyph-name="plus" data-tags="plus" horiz-adv-x="898" d="M833.627 435.168c35.41 0 64.126-28.716 64.126-64.126v-64.126c0-35.41-28.716-64.126-64.126-64.126h-288.564v-288.564c0-35.41-28.716-64.126-64.126-64.126h-64.126c-35.41 0-64.126 28.716-64.126 64.126v288.564h-288.564c-35.41 0-64.126 28.716-64.126 64.126v64.126c0 35.41 28.716 64.126 64.126 64.126h288.564v288.564c0 35.41 28.716 64.126 64.126 64.126h64.126c35.41 0 64.126-28.716 64.126-64.126v-288.564h288.564z" />
<glyph unicode="&#xf068;" glyph-name="minus" data-tags="minus" horiz-adv-x="898" d="M833.627 435.168c35.41 0 64.126-28.716 64.126-64.126v-64.126c0-35.41-28.716-64.126-64.126-64.126h-769.502c-35.41 0-64.126 28.716-64.126 64.126v64.126c0 35.41 28.716 64.126 64.126 64.126h769.502z" />
<glyph unicode="&#xf06e;" glyph-name="eye" data-tags="eye" horiz-adv-x="1154" d="M1147.279 368.238c4.436-8.774 6.936-18.815 6.936-29.31s-2.498-20.411-6.936-29.183c-108.61-211.956-323.812-355.514-570.153-355.514s-461.481 143.46-570.153 355.494c-4.436 8.774-6.936 18.815-6.936 29.31s2.498 20.411 6.936 29.183c108.61 211.956 323.812 355.514 570.153 355.514s461.481-143.46 570.153-355.494zM577.127 50.417c0.047 0 0.092-0.002 0.141-0.002 159.183 0 288.423 129.236 288.423 288.423v0.143c0 159.262-129.301 288.564-288.564 288.564s-288.564-129.301-288.564-288.564 129.301-288.564 288.564-288.564zM577.127 531.356c0.152 0 0.32-0.055 0.475-0.055 105.931 0 191.935-86.002 191.935-191.933s-86.004-191.935-191.935-191.935-191.935 86.004-191.935 191.935c0 17.413 2.324 34.287 6.68 50.33 15.895-11.694 35.556-18.571 56.782-18.571 52.922 0 95.887 42.965 95.887 95.887 0 21.23-6.912 40.853-18.606 56.747 16.124 4.696 33.146 7.35 50.718 7.594z" />
<glyph unicode="&#xf070;" glyph-name="eye-slash" data-tags="eye-slash" horiz-adv-x="1282" d="M641.252 50.417c17.86 0.166 35.152 1.957 52.102 5.231l103.982-80.458c-50.137-12.946-102.159-20.96-156.083-20.96-246.341 0-461.481 143.46-570.153 355.494-4.436 8.774-6.936 18.815-6.936 29.31s2.498 20.411 6.936 29.183c20.519 40.078 45.949 76.73 73.583 111.398l210.208-162.456c11.323-149.092 134.364-266.74 286.359-266.74zM1270.119-66.008c7.551-5.869 12.378-15.050 12.378-25.345 0-7.399-2.51-14.216-6.729-19.643l-39.355-50.639c-5.869-7.551-15.048-12.376-25.343-12.376-7.409 0-14.233 2.518-19.665 6.746l-1179.021 911.237c-7.545 5.869-12.366 15.046-12.366 25.335 0 7.403 2.514 14.225 6.737 19.653l39.336 50.639c5.869 7.551 15.048 12.376 25.343 12.376 7.409 0 14.233-2.518 19.665-6.746l254.938-197.044c87.539 47.807 188.561 75.419 295.216 75.548 246.341 0 461.481-143.46 570.153-355.494 4.436-8.774 6.936-18.815 6.936-29.31s-2.498-20.411-6.936-29.183c-40.502-78.931-95.567-147.864-162.818-204.54zM901.961 218.546c17.255 36.713 27.855 77.089 27.855 120.434 0 0.055 0.004 0.105 0.004 0.16 0 159.173-129.229 288.403-288.403 288.403h-0.164c-69.402-0.051-133.211-25.028-182.657-66.351l147.509-114.001c1.719 6.422 2.783 13.151 3.086 20.040-0.037 21.12-6.994 40.728-18.655 56.53 16.895 4.934 34.74 7.655 53.219 7.655 104.804 0 189.891-85.086 189.891-189.89 0-0.85-0.006-1.699-0.018-2.545-0.277-20.794-3.959-40.883-10.42-59.555z" />
<glyph unicode="&#xf077;" glyph-name="chevron-up" data-tags="chevron-up" horiz-adv-x="898" d="M482.885 590.424l389.448-389.446c18.78-18.782 18.78-49.233 0-68.013l-45.422-45.422c-18.751-18.751-49.141-18.786-67.935-0.080l-310.098 308.642-310.096-308.644c-18.794-18.706-49.184-18.671-67.935 0.080l-45.422 45.422c-18.78 18.782-18.78 49.233 0 68.013l389.448 389.446c18.78 18.782 49.231 18.782 68.013 0.002z" />
<glyph unicode="&#xf078;" glyph-name="chevron-down" data-tags="chevron-down" horiz-adv-x="898" d="M414.868 87.539l-389.448 389.448c-18.78 18.782-18.78 49.233 0 68.013l45.422 45.422c18.751 18.751 49.141 18.786 67.935 0.080l310.098-308.644 310.096 308.644c18.794 18.706 49.184 18.671 67.935-0.080l45.422-45.422c18.78-18.782 18.78-49.233 0-68.013l-389.446-389.448c-18.782-18.78-49.233-18.78-68.015 0z" />
<glyph unicode="&#xf07b;" glyph-name="folder" data-tags="folder" d="M929.815 595.482c53.124 0 96.188-43.064 96.188-96.188v-448.876c0-53.124-43.064-96.188-96.188-96.188h-833.627c-53.124 0-96.188 43.064-96.188 96.188v577.127c0 53.124 43.064 96.188 96.188 96.188h320.626l128.25-128.25h384.751z" />
<glyph unicode="&#xf07c;" glyph-name="folder-open" data-tags="folder-open" horiz-adv-x="1154" d="M1147.629 266.654l-145.134-248.796c-22.237-38.123-63.497-63.628-110.777-63.628h-801.493c-37.119 0-60.247 40.264-41.545 72.328l145.132 248.796c22.241 38.123 63.499 63.628 110.78 63.628h801.493c37.119 0 60.247-40.264 41.543-72.328zM304.594 403.106c-68.154 0-131.83-36.572-166.17-95.442l-138.424-237.3v557.18c0 53.124 43.064 96.188 96.188 96.188h320.626l128.25-128.25h320.626c53.124 0 96.188-43.064 96.188-96.188v-96.188h-657.283z" />
<glyph unicode="&#xf09b;" glyph-name="github" data-tags="github" horiz-adv-x="994" d="M332.449 55.627c0-4.008-4.611-7.213-10.42-7.213-6.612-0.602-11.223 2.606-11.223 7.213 0 4.008 4.611 7.215 10.42 7.215 6.012 0.602 11.223-2.606 11.223-7.215zM270.128 64.644c1.402 4.008 7.215 6.012 12.424 4.611 6.012-1.805 9.821-6.412 8.616-10.42-1.201-4.008-7.213-6.012-12.424-4.008-6.012 1.201-10.020 5.811-8.616 9.819zM358.7 68.052c5.813 0.602 11.221-2.004 11.825-5.811 0.602-4.008-3.406-7.817-9.219-9.219-6.012-1.402-11.221 1.203-11.823 5.211-0.604 4.609 3.404 8.414 9.217 9.819zM490.558 835.951c277.942 0 503.383-211.012 503.383-488.954 0-222.234-135.866-412.405-336.256-478.935-25.45-4.609-34.668 11.221-34.668 24.247 0 16.432 0.602 99.997 0.602 167.528 0 47.092-15.63 77.15-34.066 92.981 112.017 12.626 230.049 28.054 230.049 221.432 0 54.909-19.638 82.562-51.7 118.031 5.209 13.026 22.243 66.53-5.211 136.067-41.881 13.225-138.27-54.106-138.27-54.106-40.078 11.221-83.162 17.034-125.846 17.034s-85.768-5.813-125.846-17.034c0 0-96.387 67.131-138.27 54.106-27.454-69.337-10.42-123.041-5.209-136.067-32.062-35.267-47.293-62.923-47.293-118.031 0-192.774 113.021-209.008 225.040-221.432-14.426-13.225-27.452-35.468-32.062-67.53-28.656-13.227-102.2-35.47-146.085 41.881-27.454 47.694-77.352 51.7-77.352 51.7-49.096 0.604-3.205-30.859-3.205-30.859 32.865-15.030 55.708-73.345 55.708-73.345 29.458-89.776 169.732-59.716 169.732-59.716 0-42.082 0.602-110.616 0.602-123.039 0-13.026-9.018-28.857-34.668-24.249-199.79 66.931-339.663 257.102-339.663 479.336 0 277.942 212.615 488.954 490.558 488.954zM194.78 144.801c2.606 2.608 7.213 1.203 10.42-2.004 3.404-3.807 4.008-8.414 1.4-10.418-2.606-2.608-7.213-1.203-10.418 2.004-3.406 3.807-4.008 8.414-1.402 10.418zM173.139 161.034c1.4 2.004 4.609 2.606 8.616 1.402 4.008-2.004 6.012-5.211 4.609-7.817-1.402-2.807-5.41-3.406-8.616-1.402-4.008 2.004-6.012 5.211-4.609 7.817zM238.064 89.693c2.606 3.207 8.616 2.608 13.026-2.004 4.008-3.807 5.211-9.819 2.606-12.422-2.606-3.207-8.414-2.608-13.026 2.004-4.609 3.807-5.811 9.819-2.606 12.422zM215.22 119.152c3.205 2.606 8.414 0.602 11.221-4.008 3.205-4.609 3.205-9.819 0-12.424-2.606-2.004-8.016 0-11.221 4.611-3.207 4.609-3.207 9.819 0 11.823z" />
<glyph unicode="&#xf106;" glyph-name="angle-up" data-tags="angle-up" horiz-adv-x="642" d="M354.692 531.958l272.532-272.532c18.837-18.835 18.837-49.295 0-67.931l-45.287-45.289c-18.837-18.835-49.297-18.835-67.933 0l-193.378 192.976-193.178-193.176c-18.835-18.837-49.295-18.837-67.931 0l-45.488 45.287c-18.837 18.837-18.837 49.297 0 67.933l272.532 272.532c18.837 19.038 49.295 19.038 68.133 0.199z" />
<glyph unicode="&#xf107;" glyph-name="angle-down" data-tags="angle-down" horiz-adv-x="642" d="M286.56 146.004l-272.532 272.532c-18.837 18.835-18.837 49.295 0 67.931l45.287 45.289c18.837 18.835 49.297 18.835 67.933 0l193.178-193.178 193.176 193.178c18.837 18.835 49.297 18.835 67.933 0l45.287-45.289c18.837-18.835 18.837-49.295 0-67.931l-272.532-272.532c-18.436-18.837-48.895-18.837-67.732 0z" />
<glyph unicode="&#xf15b;" glyph-name="file" data-tags="file" horiz-adv-x="770" d="M448.876 579.45c0-26.452 21.642-48.094 48.094-48.094h272.532v-657.283c0-26.652-21.442-48.094-48.094-48.094h-673.315c-26.652 0-48.094 21.442-48.094 48.094v929.815c0 26.652 21.442 48.094 48.094 48.094h400.782v-272.532zM769.502 607.706v-12.223h-256.5v256.5h12.223c12.827 0 25.048-5.010 34.066-14.028l196.184-196.384c9.018-9.018 14.028-21.241 14.028-33.867z" />
<glyph unicode="&#xf1f8;" glyph-name="trash" data-tags="trash" horiz-adv-x="898" d="M865.69 787.858c17.696 0 32.062-14.366 32.062-32.062v-64.126c0-17.696-14.366-32.062-32.062-32.062h-833.627c-17.696 0-32.062 14.366-32.062 32.062v64.126c0 17.696 14.366 32.062 32.062 32.062h240.47l18.837 37.474c7.727 15.801 23.933 26.652 42.697 26.652h229.234c0.012 0-0.004 0.047 0.008 0.047 18.858 0 35.197-10.879 43.076-26.698l18.837-37.474h240.47zM106.608-83.845l-42.482 679.326h769.502l-42.482-679.326c-3.147-50.25-44.951-90.17-95.987-90.176h-492.564c-51.036 0.006-92.84 39.926-95.987 90.176z" />
<glyph unicode="&#xf245;" glyph-name="mouse-pointer" data-tags="mouse-pointer" horiz-adv-x="642" d="M605.56 192.443h-212.583l111.878-272.518c7.795-18.891-1.111-40.076-18.923-48.092l-98.522-42.938c-18.366-8.016-38.963 1.145-46.756 19.466l-106.313 258.777-173.667-178.623c-23.146-23.8-60.675-5.451-60.675 25.763v861.037c0 32.863 39.92 48.885 60.673 25.761l569.937-586.228c22.987-22.401 6.026-62.403-25.048-62.403z" />
<glyph unicode="&#xf24d;" glyph-name="clone" data-tags="clone" d="M929.815 851.982c53.124 0 96.188-43.064 96.188-96.188v-577.127c0-53.124-43.064-96.188-96.188-96.188h-577.127c-53.124 0-96.188 43.064-96.188 96.188v577.127c0 53.124 43.064 96.188 96.188 96.188h577.127zM352.688 18.355h416.814v-96.188c0-53.124-43.064-96.188-96.188-96.188h-577.127c-53.124 0-96.188 43.064-96.188 96.188v577.127c0 53.124 43.064 96.188 96.188 96.188h96.188v-416.814c0-88.397 71.915-160.313 160.313-160.313z" />
<glyph unicode="&#xf267;" glyph-name="safari" data-tags="safari" d="M550.455 301.528l-217.805-142.898 142.898 217.805zM513.001 835.951c274.536 0 496.97-222.434 496.97-496.97s-222.434-496.97-496.97-496.97-496.97 222.434-496.97 496.97 222.434 496.97 496.97 496.97zM825.311 485.688c-5.785-2.42-9.836-8.141-9.836-14.799 0-2.174 0.432-4.248 1.219-6.141v0c2.408-5.813 8.143-9.889 14.821-9.889 2.166 0 4.233 0.43 6.119 1.211l29.558 12.245c5.817 2.406 9.897 8.143 9.897 14.823 0 2.174-0.434 4.246-1.219 6.137v0c-2.404 5.823-8.143 9.907-14.827 9.907-2.164 0-4.229-0.43-6.114-1.209zM630.090 663.614c-0.795-1.902-1.252-3.992-1.252-6.182 0-6.682 4.096-12.411 9.911-14.819v0c1.887-0.779 3.957-1.229 6.123-1.229 6.68 0 12.409 4.094 14.817 9.907l12.284 29.619c0.781 1.887 1.229 3.957 1.229 6.123 0 6.68-4.094 12.409-9.907 14.817v0c-1.893 0.787-3.969 1.238-6.145 1.238-6.659 0-12.376-4.071-14.796-9.856zM513.001 731.748c-8.848 0-16.032-7.184-16.032-16.032v-32.062c0-8.848 7.184-16.032 16.032-16.032v0c8.848 0 16.032 7.184 16.032 16.032v32.062c0 8.848-7.184 16.032-16.032 16.032v0zM362.708 701.85c-5.811-2.408-9.885-8.141-9.885-14.819 0-2.143 0.422-4.19 1.188-6.061l12.284-29.619c2.334-5.967 8.131-10.176 14.921-10.176 8.85 0 16.032 7.184 16.032 16.032 0 2.277-0.475 4.446-1.332 6.408l-12.245 29.558c-2.406 5.817-8.143 9.897-14.823 9.897-2.174 0-4.246-0.434-6.137-1.219zM235.3 616.703c-2.901-2.902-4.715-6.912-4.715-11.335 0-4.391 1.772-8.371 4.635-11.27l22.665-22.663c2.901-2.901 6.912-4.696 11.333-4.696s8.428 1.795 11.331 4.696v0c2.883 2.899 4.664 6.899 4.664 11.305 0 4.404-1.781 8.399-4.664 11.299l-22.583 22.663c-2.902 2.901-6.914 4.696-11.335 4.696s-8.428-1.795-11.331-4.696v0zM120.234 338.981c0-8.848 7.184-16.032 16.032-16.032h32.062c8.848 0 16.032 7.184 16.032 16.032v0c0 8.848-7.184 16.032-16.032 16.032h-32.062c-8.848 0-16.032-7.184-16.032-16.032v0zM200.692 192.275c5.785 2.42 9.836 8.141 9.836 14.799 0 2.174-0.432 4.248-1.219 6.141v0c-2.408 5.813-8.143 9.889-14.821 9.889-2.166 0-4.233-0.43-6.119-1.211l-29.558-12.245c-5.817-2.406-9.897-8.143-9.897-14.823 0-2.174 0.434-4.246 1.219-6.137v0c2.404-5.823 8.143-9.907 14.827-9.907 2.164 0 4.229 0.43 6.114 1.209zM209.368 464.806c0.775 1.883 1.221 3.887 1.221 6.045 0 6.678-4.090 12.405-9.899 14.815l-29.619 12.284c-1.887 0.781-3.957 1.229-6.123 1.229-6.68 0-12.409-4.094-14.817-9.907v0c-0.787-1.893-1.238-3.969-1.238-6.145 0-6.659 4.071-12.376 9.856-14.796l29.619-12.264c1.895-0.789 3.975-1.24 6.155-1.24 6.707 0 12.456 4.127 14.846 9.979v0zM395.913 14.347c0.857 1.963 1.348 4.151 1.348 6.428 0 8.85-7.184 16.032-16.032 16.032-6.791 0-12.6-4.229-14.936-10.196l-12.284-29.619c-0.781-1.887-1.225-3.975-1.225-6.143 0-8.852 7.186-16.038 16.038-16.038 6.684 0 12.419 4.098 14.825 9.916zM529.033-37.755v32.062c0 8.848-7.184 16.032-16.032 16.032v0c-8.848 0-16.032-7.184-16.032-16.032v-32.062c0-8.848 7.184-16.032 16.032-16.032v0c8.848 0 16.032 7.184 16.032 16.032zM663.295-23.887c5.811 2.408 9.885 8.141 9.885 14.819 0 2.143-0.422 4.19-1.188 6.061l-12.284 29.619c-2.408 5.813-8.143 9.889-14.821 9.889-2.166 0-4.233-0.43-6.119-1.211v0c-5.813-2.408-9.889-8.143-9.889-14.821 0-2.166 0.43-4.233 1.211-6.119l12.245-29.558c2.406-5.817 8.143-9.897 14.823-9.897 2.174 0 4.246 0.434 6.137 1.219v0zM790.703 61.259c2.901 2.902 4.715 6.912 4.715 11.335 0 4.391-1.772 8.371-4.635 11.27l-22.665 22.663c-2.901 2.901-6.912 4.696-11.333 4.696s-8.428-1.795-11.331-4.696v0c-2.883-2.899-4.664-6.899-4.664-11.305 0-4.404 1.781-8.399 4.664-11.299l22.583-22.663c2.902-2.901 6.914-4.696 11.335-4.696s8.428 1.795 11.331 4.696v0zM573.62 278.363l231.272 352.508-352.508-231.272-231.272-352.508zM875.87 188.688c0.787 1.893 1.238 3.969 1.238 6.145 0 6.659-4.071 12.376-9.856 14.796l-29.619 12.264c-1.902 0.795-3.992 1.252-6.182 1.252-6.682 0-12.411-4.096-14.819-9.911v0c-0.779-1.887-1.229-3.957-1.229-6.123 0-6.68 4.094-12.409 9.907-14.817l29.619-12.284c1.887-0.781 3.957-1.229 6.123-1.229 6.68 0 12.409 4.094 14.817 9.907v0zM889.737 322.95c8.848 0 16.032 7.184 16.032 16.032v0c0 8.848-7.184 16.032-16.032 16.032h-32.062c-8.848 0-16.032-7.184-16.032-16.032v0c0-8.848 7.184-16.032 16.032-16.032h32.062z" />
<glyph unicode="&#xf268;" glyph-name="chrome" data-tags="chrome" horiz-adv-x="994" d="M263.514 416.132l-153.1 235.26c95.387 118.63 238.466 183.959 384.751 184.559 84.768 0.602 171.334-21.042 250.090-66.53 86.969-50.498 153.098-123.039 195.18-206.403l-411.403 21.642c-116.427 6.815-227.244-58.714-265.518-168.528zM329.443 338.981c0 92.782 74.945 167.526 167.526 167.526s167.526-74.945 167.526-167.526-74.945-167.526-167.526-167.526-167.526 74.945-167.526 167.526zM960.475 517.73c87.17-224.238 0-484.746-215.218-608.989-86.971-50.498-182.959-70.937-276.141-65.927l224.64 345.472c63.923 98.192 62.722 226.242-13.227 315.015zM267.923 243.595c52.702-103.602 164.119-166.928 279.546-145.284l-127.65-250.090c-237.864 36.472-419.82 242.273-419.82 490.758 0 100.395 29.859 194.18 80.959 272.332z" />
<glyph unicode="&#xf269;" glyph-name="firefox" data-tags="firefox" d="M1009.009 368.078c0.48-8.897 0.723-18.036 0.963-27.091 0-274.916-222.895-497.812-497.611-497.812-246.038 0-450.598 178.889-490.516 413.567-0.723 6.492-1.443 12.745-2.164 19.237-9.86 85.367 0.961 175.063 32.222 250.068 21.642 51.864 65.407 108.212 99.794 126.008-32.464-63.726-48.334-126.246-51.7-168.090 22.603 74.546 65.388 136.989 125.264 181.075 102.68 75.488 240.928 78.875 295.998 30.781-102.2-35.089-213.517-176.264-188.99-341.689 4.020-27.636 12.45-54.422 24.288-78.633-19.077 50.258-20.759 120.955 10.020 166.885 34.388 51.202 83.422 62.022 109.634 56.491-10.338 2.164-33.183-41.582-36.551-49.276-8.008-18.233-12.526-38.449-12.526-59.624 0-0.834 0.008-1.668 0.021-2.496 0.787-46.326 20.249-88.19 51.219-118.23 95.487-93.043 249.61-56.43 318.622 49.778 47.373 73.101 53.145 197.164-7.696 295.758-15.288 24.208-33.203 46.018-53.866 65.648-95.506 91.119-232.574 129.593-361.185 106.188-0.48 0-1.201-0.24-1.684-0.24-3.608-0.721-6.973-1.441-10.34-2.164-0.721-0.24-1.684-0.24-2.404-0.479l-11.783-2.887c-29.095-7.133-69.736-21.642-99.073-39.195-0.188-0.027-0.354-0.113-0.48-0.24l0.24 0.24c0-0.133-0.107-0.24-0.24-0.24v0h-0.26l0.961 0.961c0.963 0.963 2.647 2.324 4.811 4.328 39.436 35.59 98.834 63.964 166.144 78.152 29.535 6.207 59.854 9.649 91.137 10.020h21.302c26.023-0.625 51.325-3.35 76.148-8.016 1.926-0.24 3.527-0.723 5.531-0.961h0.24c3.608-0.723 7.453-1.686 11.301-2.404 38.611-8.768 76.344-22.196 111.075-39.197 4.811-2.404 9.618-4.809 14.428-7.453 17.384-8.659 33.847-18.794 49.295-30.3 8.657-6.252 16.995-12.745 25.009-19.718 13.042-10.409 25.116-21.437 36.652-33.466 17.055-16.745 32.593-34.349 47.112-53.383 1.924-2.404 3.526-4.811 5.53-7.453 0.803-0.963 1.283-1.686 2.004-2.647l3.61-5.051c0.721-0.961 1.441-2.164 2.164-3.125 0.961-1.441 2.162-3.127 3.125-4.569 0.885-1.145 1.684-2.344 2.404-3.608l2.885-4.268c0.885-1.145 1.686-2.344 2.404-3.608 0.963-1.443 1.924-3.127 2.647-4.328 0.721-1.203 1.684-2.484 2.404-3.848s1.684-2.647 2.402-4.008c0.723-1.363 1.686-2.567 2.404-4.008 0.885-1.279 1.69-2.617 2.404-4.008 0.723-1.443 1.684-3.127 2.404-4.328s1.441-2.647 2.164-3.848c0.721-1.684 1.604-3.365 2.404-4.569 0.801-1.201 1.281-2.404 2.004-3.608 0.721-1.684 1.684-3.127 2.402-4.811 0.48-0.961 0.963-2.164 1.443-3.125 0.961-1.684 1.684-3.285 2.645-5.289l0.723-1.443c3.526-7.453 6.895-15.149 10.020-22.843 0-0.24 0.24-0.48 0.24-0.723 0.881-2.404 1.924-4.569 2.885-6.975 0.24-0.479 0.48-1.201 0.723-1.684 0.963-2.164 1.684-4.567 2.647-6.733 0.277-0.645 0.525-1.322 0.721-2.004 0.723-2.164 1.686-4.569 2.404-6.735l0.723-2.164c0.961-2.404 1.684-4.569 2.404-6.973 0.238-0.803 0.479-1.283 0.721-2.004 0.723-2.164 1.443-4.569 2.164-6.975 0.24-0.48 0.24-1.201 0.48-1.684 0.723-2.404 1.441-5.051 2.164-7.453 0.24-0.24 0.24-0.723 0.48-1.203l2.164-8.016c0.238-0.24 0.238-0.24 0.238-0.48 7.1-26.562 12.106-54.336 14.669-82.46v-0.24l0.723-9.377v-0.24c0-3.127 0.24-6.252 0.479-9.379z" />
<glyph unicode="&#xf26a;" glyph-name="opera" data-tags="opera" horiz-adv-x="994" d="M629.028 786.454c-341.066 0-506.19-448.476-295.577-711.589 73.142-90.979 177.545-151.497 295.577-151.497 72.742 0 140.875 22.245 199.188 60.919-87.772-78.554-204.196-126.246-331.246-126.246-7.817 0-16.032 0-23.847 0.602-263.514 12.225-473.124 229.65-473.124 496.369 0 274.536 222.434 496.97 496.97 496.97h1.604c126.447-0.602 241.872-48.293 329.443-126.445-58.114 38.875-126.447 60.917-198.988 60.917zM833.027-10.502c-81.961-49.494-181.754-47.291-264.516 11.624 112.62 41.080 195.782 183.557 195.782 353.891 0 169.732-82.562 312.21-195.182 353.891 83.764 58.514 182.756 60.72 266.32 10.020 212.212-197.784 211.412-532.437-2.404-729.424z" />
<glyph unicode="&#xf26b;" glyph-name="internet-explorer" data-tags="internet-explorer" d="M967.987 531.946c50.491-91.073 66.646-195.544 53.808-282.876h-658.87c0-201.257 289.184-272.59 394.406-95.057h242.138c-65.257-183.816-239.846-292.615-434.474-292.615-70.411 0-140.82 0.287-203.788 31.206-175.137-89.162-361.207-113.361-361.207 84.176 0 91.793 46.582 214.611 88.156 290.612 70.409 127.695 163.142 250.238 271.905 347.014-87.583-37.795-182.606-132.852-244.431-202.712 51.856 226.016 259.438 388.034 475.124 373.644 260.572 119.822 420.166 68.423 420.166-77.304 0-54.973-21.179-126.84-42.932-176.086zM129.369 156.871c-146.288-305.396 23.097-345.162 200.926-247.090-93.309 54.973-165.434 144.589-200.926 247.090zM361.778 375.044h416.736c-4.008 110.519-101.325 190.113-208.368 190.113-107.618 0-204.357-79.595-208.364-190.113zM731.572 750.978c92.734-36.074 172.301-114.812 224.965-199.562 14.311 37.795 29.196 95.917 29.196 136 0 64.136-45.795 107.653-108.761 107.653-48.084 0-102.466-23.478-145.399-44.092z" />
<glyph unicode="&#xf282;" glyph-name="edge" data-tags="edge" d="M965.725 582.496c12.965-25.609 45.027-83.462 44.025-170.49-0.184-87.601-47.483-164.025-118.128-205.28-34.345-20.399-74.669-32.306-117.451-32.423-0.279 0-105.507-5.131-161.335 33.685-11.723 8.176-18.317 17.915-18.317 28.054 0 12.344 9.659 18.036 12.806 22.044 19.638 25.55 30.279 56.45 30.279 77.291 0 65.548-22.044 118.832-66.13 166.524-2.324 2.504-86.127 100.557-244.978 100.557-126.727 0-247.403-65.429-299.504-158.591 48.174 224.398 247.644 392.086 485.828 392.086 193.076 0 370.644-92.539 452.904-253.455zM426.372-101.219c2.567-1.143 58.135-41.26 134.524-54.526-15.821-1.522-31.091-2.723-47.309-2.723-199.070 0-370.96 117.301-450.263 286.498-51.6 111.156-48.254 212.334-46.090 237.002 8.356 68.695 54.266 119.634 93.866 149.892 59.376 45.469 137.909 71.521 215.478 71.521 14.128 0 88.012-1.805 155.585-37.252 65.247-34.267 94.825-75.307 113.341-107.231 3.707-6.477 7.012-13.317 9.799-20.319-8.455 9.319-80.275 88.572-198.507-2.004-53.448-38.744-93.785-93.858-114.161-158.148-28.337-80.959-25.73-177.506 40.277-272.532 24.542-36.455 56.1-66.921 93.461-90.176zM928.793 95.826c4.358-2.752 7.229-7.618 7.229-13.149 0-3.074-0.897-5.942-2.44-8.354-95.327-151.154-256.22-218.166-326.638-218.166-45.488 0-96.448 13.948-143.68 39.297-66.13 35.41-99.173 77.672-112.219 95.526-92.842 127.309-56.61 245.058-26.712 303.914 19.501 38.308 45.729 72.021 77.673 100.196-8.11-16.114-12.839-34.404-13.067-53.604 0-162.197 160.013-288.564 343.713-288.564 0.232 0 0.623 0.139 0.856 0.139 48.721 0 95.395 8.821 138.516 24.948 13.991 5.246 27.784 11.418 40.9 18.276 2.231 1.238 4.832 1.945 7.563 1.945 3.053 0 5.903-0.883 8.307-2.404z" />
<glyph unicode="&#xf35d;" glyph-name="external-link-alt" data-tags="external-link-alt" d="M865.69 210.731c17.696 0 32.062-14.366 32.062-32.062v-256.5c0-53.088-43.1-96.188-96.188-96.188h-705.377c-53.088 0-96.188 43.1-96.188 96.188v705.377c0 53.088 43.1 96.188 96.188 96.188h320.626c17.696 0 32.062-14.366 32.062-32.062v-64.126c0-17.696-14.366-32.062-32.062-32.062h-288.564v-641.252h641.252v224.438c0 17.696 14.366 32.062 32.062 32.062h64.126zM977.909 851.982c26.544 0 48.094-21.55 48.094-48.094v-256.5c0-43.084-52.102-64.126-82.16-34.066l-71.579 71.499-488.173-488.313c-8.71-8.741-20.77-14.153-34.072-14.153s-25.351 5.412-34.060 14.153l-45.428 45.348c-8.741 8.71-14.153 20.77-14.153 34.072s5.412 25.351 14.153 34.060l488.414 488.233-71.601 71.601c-30.158 30.24-8.758 82.16 34.066 82.16h256.5z" />
<glyph unicode="&#xf3be;" glyph-name="level-down-alt" data-tags="level-down-alt" horiz-adv-x="642" d="M628.333 65.785l-208.338-224.444c-19.009-20.468-51.452-20.499-70.486 0l-208.356 224.444c-28.468 30.66-6.768 80.82 35.242 80.82h128.199v545.064h-168.279c-6.635 0-12.651 2.692-17.005 7.043l-112.219 112.219c-15.151 15.149-4.42 41.051 17.005 41.051h392.719c26.562 0 48.094-21.532 48.094-48.094v-657.283h128.182c41.838 0 63.827-50.036 35.242-80.82z" />
<glyph unicode="&#xf78c;" glyph-name="compress-arrows-alt" data-tags="compress-arrows-alt" d="M400.782 274.856c26.652 0 48.094-21.442 48.094-48.094v-224.438c0-42.885-51.7-64.325-81.961-34.066l-62.321 66.13-198.988-198.988c-12.424-12.424-32.865-12.424-45.289 0l-50.899 50.899c-12.424 12.424-12.424 32.865 0 45.289l198.788 198.988-65.929 62.122c-30.259 30.46-8.819 82.16 34.066 82.16h224.438zM625.221 403.106c-26.652 0-48.094 21.442-48.094 48.094v224.438c0 42.885 51.7 64.325 81.961 34.066l62.321-66.13 198.988 198.988c12.424 12.424 32.865 12.424 45.289 0l50.899-50.899c12.424-12.424 12.424-32.865 0-45.289l-198.988-198.988 66.13-62.122c30.259-30.259 8.819-82.16-34.066-82.16h-224.438zM817.596 130.574l198.988-199.19c12.424-12.422 12.424-32.863 0-45.287l-50.899-50.901c-12.424-12.422-32.865-12.422-45.289 0l-198.988 198.99-62.122-65.929c-30.259-30.259-82.16-8.819-82.16 34.066v224.438c0 26.652 21.442 48.094 48.094 48.094h224.438c42.885 0 64.325-51.7 34.066-81.961zM366.716 709.504c30.259 30.259 82.16 8.817 82.16-33.867v-224.438c0-26.652-21.442-48.094-48.094-48.094h-224.438c-42.885 0-64.325 51.7-34.066 81.961l66.13 62.321-198.988 198.988c-12.424 12.424-12.424 32.865 0 45.289l50.899 50.899c12.424 12.424 32.865 12.424 45.289 0l198.988-198.988z" />
</font>
</defs>
</svg>
